<?xml version="1.0" encoding="utf-8"?>
<!-- Generator: Adobe Illustrator 22.1.0, SVG Export Plug-In . SVG Version: 6.00 Build 0)  -->
<svg version="1.1" id="Layer_1" xmlns="http://www.w3.org/2000/svg" xmlns:xlink="http://www.w3.org/1999/xlink" x="0px" y="0px"
	 viewBox="0 0 93.3 106.7" style="enable-background:new 0 0 93.3 106.7;" xml:space="preserve">
<style type="text/css">
	.st0{fill:url(#SVGID_1_);}
</style>
<g>
	<linearGradient id="SVGID_1_" gradientUnits="userSpaceOnUse" x1="7.2215" y1="53.0118" x2="88.7606" y2="53.0118">
		<stop  offset="0" style="stop-color:#3173A4"/>
		<stop  offset="0.9946" style="stop-color:#55BF9A"/>
	</linearGradient>
	<path class="st0" d="M77.6,24.2l-2.5,2.5c-6.1-5.1-13.8-7.8-21.7-7.8c-18,0-32.9,13.9-34.1,31.8h-3.5C17,30.8,33.4,15.3,53.4,15.3
		C62.3,15.3,70.8,18.5,77.6,24.2z M53.4,27.9c8.1,0,15.6,3.9,20.4,10.4l2.5-2.5c-5.4-7.2-13.9-11.5-22.9-11.5
		c-15.8,0-28.7,12.9-28.7,28.7c0,15.8,12.9,28.7,28.7,28.7c9,0,17.5-4.3,22.9-11.5l-2.5-2.5c-4.7,6.6-12.3,10.4-20.4,10.4
		c-13.9,0-25.1-11.3-25.1-25.1C28.3,39.1,39.5,27.9,53.4,27.9z M80.4,26.8L78,29.3c0.8,0.8,1.6,1.7,2.3,2.6l2.5-2.5
		C82,28.5,81.3,27.7,80.4,26.8z M15.8,55.4C17,75.2,33.4,90.7,53.4,90.7c8.9,0,17.4-3.1,24.2-8.9l-2.5-2.5
		c-6.1,5.1-13.8,7.8-21.7,7.8c-18,0-32.9-13.9-34.1-31.8H15.8z M78,76.7l2.5,2.5c0.8-0.8,1.6-1.7,2.3-2.6l-2.5-2.5
		C79.5,75,78.8,75.9,78,76.7z M53.4,95.7c-23.5,0-42.7-19.1-42.7-42.7c0-23.5,19.1-42.7,42.7-42.7c12.8,0,24.7,5.6,32.9,15.5
		l2.5-2.5C79.9,12.8,67.1,6.8,53.4,6.8C27.9,6.8,7.2,27.5,7.2,53c0,25.5,20.7,46.2,46.2,46.2c13.7,0,26.5-6,35.4-16.5l-2.5-2.5
		C78.1,90,66.2,95.7,53.4,95.7z"/>
</g>
</svg>
